<?xml version="1.0" encoding="UTF-8"?>
<mxfile host="app.diagrams.net" agent="Template" version="24.0.0">
  <diagram id="template-usecase" name="Use Case Template">
    <mxGraphModel dx="1422" dy="794" grid="1" gridSize="10" guides="1" tooltips="1" connect="1" arrows="1" fold="1" page="1" pageScale="1" pageWidth="827" pageHeight="1169" math="0" shadow="0">
      <root>
        <mxCell id="0" />
        <mxCell id="1" parent="0" />
        <!-- Template comment: This is a basic Use Case template -->
        <!-- Replace this with your actors and use cases -->
        <mxCell id="system-boundary" value="System Name" style="rounded=0;whiteSpace=wrap;html=1;fillColor=none;dashed=1;dashPattern=8 8;" parent="1" vertex="1">
          <mxGeometry x="300" y="200" width="300" height="200" as="geometry" />
        </mxCell>
        <mxCell id="sample-actor" value="Actor" style="shape=umlActor;verticalLabelPosition=bottom;verticalAlign=top;html=1;" parent="1" vertex="1">
          <mxGeometry x="200" y="280" width="30" height="60" as="geometry" />
        </mxCell>
        <mxCell id="sample-usecase" value="Use Case" style="ellipse;whiteSpace=wrap;html=1;" parent="1" vertex="1">
          <mxGeometry x="380" y="280" width="120" height="80" as="geometry" />
        </mxCell>
        <mxCell id="sample-association" value="" style="endArrow=none;html=1;rounded=0;exitX=1;exitY=0.5;exitDx=0;exitDy=0;exitPerimeter=0;entryX=0;entryY=0.5;entryDx=0;entryDy=0;" parent="1" source="sample-actor" target="sample-usecase" edge="1">
          <mxGeometry width="50" height="50" relative="1" as="geometry">
            <mxPoint x="390" y="350" as="sourcePoint" />
            <mxPoint x="440" y="300" as="targetPoint" />
          </mxGeometry>
        </mxCell>
      </root>
    </mxGraphModel>
  </diagram>
</mxfile>